# xmcd CD database file
#
# Track frame offsets:
#	150
#	21005
#	39872
#	55275
#	76702
#	101227
#	123060
#	143605
#	158237
#	169892
#	190867
#	212410
#	231325
#	252102
#
# Disc length: 3637 seconds
#
# Revision: 0
# Processed by: cddbd v1.5.1PL2 Copyright (c) Steve Scherf et al.
# Submitted via: CDex 1.51
#
DISCID=ab0e330e
DTITLE=Secret Garden - Earthsongs
DYEAR=2005
DGENRE=New Age
TTITLE0=Sometimes When It Rains
TTITLE1=Fields Of Fortune
TTITLE2=The Reel
TTITLE3=Always There
TTITLE4=When Darkness Falls
TTITLE5=Sleepsong
TTITLE6=Lotus
TTITLE7=Searching For The Past
TTITLE8=Daughters Of Erin
TTITLE9=Half A World Away
TTITLE10=Grace
TTITLE11=Raise Your Voices
TTITLE12=Silence Speaks
TTITLE13=Canzona
EXTD=YEAR: 2005
EXTT0=
EXTT1=
EXTT2=
EXTT3=
EXTT4=
EXTT5=
EXTT6=
EXTT7=
EXTT8=
EXTT9=
EXTT10=
EXTT11=
EXTT12=
EXTT13=
PLAYORDER=
